<svg version="1.1" xmlns="http://www.w3.org/2000/svg" xmlns:xlink="http://www.w3.org/1999/xlink" width="66.80494" height="168.71388" viewBox="0,0,66.80494,168.71388"><g transform="translate(-206.59753,-146.15823)"><g data-paper-data="{&quot;isPaintingLayer&quot;:true}" fill-rule="nonzero" stroke="#000000" stroke-width="7.5" stroke-linejoin="miter" stroke-miterlimit="10" stroke-dasharray="" stroke-dashoffset="0" style="mix-blend-mode: normal"><path d="M269.65247,180c0,16.61923 -13.27587,30.09177 -29.65247,30.09177c-16.37661,0 -29.65247,-13.47254 -29.65247,-30.09177c0,-16.61922 13.27586,-30.09177 29.65247,-30.09177c16.3766,0 29.65247,13.47254 29.65247,30.09177z" fill="#ffffff" stroke-linecap="butt"/><path d="M236.6071,210.63026v64.35684l-10.1038,29.65247l-8.68993,6.48255" fill="none" stroke-linecap="round"/><path d="M237.14238,274.66056l6.58944,32.72754l9.66451,3.07507" fill="none" stroke-linecap="round"/><path d="M232.52977,212.93949l-14.05747,37.55979" fill="none" stroke-linecap="round"/><path d="M238.67991,213.15914l16.0343,32.5079" fill="none" stroke-linecap="round"/><path d="M229.0154,172.1106v5.05191" fill="none" stroke-linecap="round"/><path d="M248.07287,172.27834v5.05191" fill="none" stroke-linecap="round"/><path d="M221.10808,187.7056l8.56627,3.29472" fill="none" stroke-linecap="round"/></g></g></svg>